<svg width="36" height="36" viewBox="0 0 36 36" fill="none" xmlns="http://www.w3.org/2000/svg">
<g clip-path="url(#clip0_853_34759)">
<path d="M4.75913 36.0053C4.16851 35.8154 3.59985 35.5658 3.32212 34.9734C3.15337 34.6131 3.01538 34.1974 3.0145 33.8054C2.99517 27.619 2.99106 21.4321 3.00219 15.2446C3.00219 14.6892 3.29839 14.3481 3.74751 14.3877C3.90201 14.3916 4.05019 14.4499 4.16594 14.5523C4.2817 14.6547 4.35761 14.7947 4.38032 14.9476C4.40457 15.0977 4.4134 15.25 4.40669 15.402C4.40669 21.4594 4.40669 27.5174 4.40669 33.576C4.40669 34.3898 4.61499 34.599 5.42358 34.599H30.3845C31.1993 34.599 31.4084 34.3916 31.4084 33.583V2.43105C31.4084 1.61543 31.201 1.40537 30.3933 1.40537H16.8582C16.7527 1.40537 16.6472 1.40537 16.5417 1.40537C16.1506 1.38691 15.8773 1.1874 15.8052 0.871876C15.727 0.529103 15.8518 0.28125 16.2095 0.0632813C16.2376 0.0437208 16.2646 0.0225936 16.2904 0H31.0542C32.4974 0.591504 32.8121 1.06787 32.8121 2.65693V9.30059C32.8121 17.4082 32.8121 25.5161 32.8121 33.6243C32.8121 34.178 32.7163 34.6913 32.3849 35.1501C32.0536 35.6089 31.5693 35.8242 31.0542 36.0053H4.75913Z" fill="#3138E3"/>
<path d="M9.39919 0C10.0206 0.191602 10.6727 0.316406 11.2572 0.587109C13.5793 1.66113 14.851 4.15283 14.4485 6.73945C14.0706 9.16963 12.0166 11.1472 9.53542 11.4715C6.42058 11.8784 3.47536 9.68906 3.07546 6.67002C2.64304 3.404 4.7612 0.531737 7.94108 0.0676748C8.00732 0.0523254 8.07182 0.0302377 8.13356 0.00175685L9.39919 0ZM8.76989 10.1241C9.63196 10.1234 10.4745 9.8671 11.1908 9.38757C11.9072 8.90803 12.4653 8.22682 12.7945 7.4301C13.1237 6.63337 13.2093 5.75691 13.0404 4.91155C12.8714 4.0662 12.4556 3.28993 11.8455 2.68091C11.2354 2.07189 10.4583 1.65748 9.61269 1.49009C8.76703 1.32269 7.89072 1.40984 7.09459 1.7405C6.29846 2.07116 5.61827 2.63049 5.14004 3.34774C4.6618 4.06499 4.40701 4.90795 4.40788 5.77002C4.41229 6.92481 4.87352 8.03093 5.69083 8.84675C6.50814 9.66258 7.61509 10.1218 8.76989 10.1241Z" fill="#3138E3"/>
<path d="M11.8303 17.2827C12.6385 15.9015 13.8902 14.8343 15.382 14.2549C15.1034 13.6722 14.7307 13.1466 14.5954 12.5665C14.2121 10.915 14.5075 9.34356 15.8698 8.29063C17.6522 6.91514 20.4858 7.77559 21.1432 9.93067C21.5203 11.1717 21.5044 12.4022 20.8198 13.5579C20.688 13.7592 20.5457 13.9534 20.3935 14.1398C21.0729 14.5731 21.7997 14.9422 22.4097 15.4511C23.0197 15.96 23.4987 16.5937 24.048 17.1913C24.8286 16.2663 25.3741 15.1663 25.6379 13.9851C26.6267 9.58087 23.9416 5.34366 19.5251 4.40499C18.7341 4.23712 17.8974 4.30831 17.0818 4.27579C16.9183 4.26964 16.7539 4.30215 16.5905 4.29864C16.4191 4.30248 16.2526 4.24183 16.1238 4.1287C15.9951 4.01557 15.9135 3.85822 15.8953 3.6878C15.8733 3.52276 15.9149 3.35553 16.0117 3.22005C16.1085 3.08457 16.2532 2.991 16.4164 2.95831C16.9002 2.87199 17.3902 2.82583 17.8816 2.82032C20.0437 2.81771 22.14 3.56337 23.8148 4.93074C25.4896 6.2981 26.6396 8.20289 27.0697 10.3218C28.0953 15.386 24.7511 20.3721 19.6781 21.3415C18.4673 21.5736 17.2226 21.5643 16.0154 21.3141C14.8082 21.0639 13.6623 20.5779 12.6434 19.8838C11.6245 19.1896 10.7527 18.3012 10.0781 17.2693C9.40342 16.2375 8.93917 15.0825 8.71195 13.8708C8.62406 13.39 8.82269 13.02 9.22084 12.9348C9.66029 12.8398 9.99867 13.093 10.0997 13.6221C10.3467 14.973 10.9259 16.1691 11.8303 17.2827ZM12.8745 18.2987C15.8856 20.8194 20.3188 20.5839 22.9256 18.2741C21.8411 16.3107 20.1843 15.2199 17.9378 15.2085C15.6588 15.1944 13.981 16.2904 12.8745 18.2952V18.2987ZM19.9426 11.4134C19.9426 11.2719 19.9479 11.1427 19.9426 11.0144C19.8908 9.88057 18.9872 9.00518 17.8956 9.021C17.3686 9.0275 16.8644 9.23695 16.4879 9.60578C16.1114 9.9746 15.8915 10.4744 15.8742 11.0012C15.8555 11.3051 15.8585 11.61 15.8829 11.9135C15.9099 12.2626 16.027 12.5987 16.2228 12.8889C16.4186 13.1791 16.6865 13.4135 17.0002 13.5691C17.3138 13.7247 17.6625 13.7961 18.012 13.7764C18.3616 13.7568 18.7001 13.6466 18.9943 13.4568C19.7422 12.9761 19.9945 12.2519 19.9426 11.4099V11.4134Z" fill="#3138E3"/>
<path d="M19.4011 24.0517C21.0183 24.0517 22.6352 24.0517 24.2518 24.0517C24.751 24.0517 25.0428 24.2793 25.085 24.6748C25.1093 24.8451 25.067 25.0182 24.967 25.1581C24.867 25.2981 24.717 25.3941 24.548 25.4263C24.4323 25.4494 24.3143 25.4591 24.1964 25.4553C20.9984 25.4553 17.7998 25.4553 14.6005 25.4553C14.0398 25.4553 13.7005 25.1705 13.7216 24.7267C13.7401 24.3145 14.0512 24.0525 14.5496 24.0508C15.6623 24.0464 16.7758 24.0508 17.8894 24.0508L19.4011 24.0517Z" fill="#3138E3"/>
<path d="M19.4201 27.9834C21.0249 27.9834 22.6301 27.9834 24.2356 27.9834C24.7401 27.9834 25.0354 28.2014 25.0828 28.5916C25.1115 28.7614 25.0733 28.9356 24.9763 29.0778C24.8793 29.22 24.731 29.3192 24.5625 29.3545C24.4368 29.3806 24.3085 29.3918 24.1802 29.3879C20.9933 29.3879 17.8061 29.3879 14.6186 29.3879C14.253 29.3879 13.9339 29.3123 13.7775 28.9484C13.5727 28.4694 13.9251 27.9931 14.4991 27.9816C15.2602 27.9702 16.0222 27.9816 16.7842 27.9816L19.4201 27.9834Z" fill="#3138E3"/>
<path d="M12.1062 24.7416C12.1062 24.8777 12.066 25.0108 11.9906 25.1241C11.9152 25.2374 11.8081 25.3259 11.6826 25.3786C11.557 25.4312 11.4188 25.4456 11.2851 25.4199C11.1515 25.3942 11.0284 25.3297 10.9313 25.2343C10.8342 25.1389 10.7674 25.0169 10.7394 24.8838C10.7114 24.7506 10.7233 24.6121 10.7737 24.4857C10.8241 24.3592 10.9108 24.2505 11.0227 24.1731C11.1347 24.0958 11.267 24.0532 11.4031 24.0508C11.5871 24.0521 11.7633 24.1249 11.8945 24.2538C12.0258 24.3828 12.1017 24.5577 12.1062 24.7416Z" fill="#3138E3"/>
<path d="M12.1054 28.6767C12.1055 28.86 12.0347 29.0363 11.9077 29.1685C11.7807 29.3007 11.6074 29.3787 11.4242 29.3859C11.3326 29.3874 11.2415 29.3709 11.1563 29.3372C11.071 29.3035 10.9933 29.2534 10.9274 29.1896C10.8616 29.1259 10.8089 29.0498 10.7724 28.9657C10.736 28.8816 10.7164 28.7912 10.7149 28.6995C10.7134 28.6079 10.73 28.5168 10.7637 28.4316C10.7974 28.3463 10.8475 28.2686 10.9113 28.2027C10.975 28.1368 11.0511 28.0842 11.1352 28.0477C11.2193 28.0113 11.3097 27.9917 11.4014 27.9902C11.5846 27.9917 11.7602 28.064 11.8914 28.1919C12.0226 28.3198 12.0993 28.4935 12.1054 28.6767Z" fill="#3138E3"/>
<path d="M4.40137 12.4292C4.40463 12.5672 4.3669 12.7031 4.29293 12.8196C4.21897 12.9362 4.1121 13.0282 3.98584 13.084C3.85958 13.1398 3.7196 13.1569 3.58362 13.1332C3.44763 13.1094 3.32175 13.0458 3.22189 12.9505C3.12203 12.8552 3.05268 12.7324 3.02261 12.5977C2.99255 12.463 3.00311 12.3224 3.05297 12.1936C3.10284 12.0649 3.18976 11.9539 3.30274 11.8746C3.41572 11.7952 3.54969 11.7512 3.6877 11.748C3.87077 11.7502 4.04623 11.8217 4.17867 11.9481C4.31112 12.0745 4.3907 12.2464 4.40137 12.4292Z" fill="#3138E3"/>
<path d="M7.93885 6.39113C8.69032 5.63879 9.37499 4.95148 10.0632 4.26769C10.1671 4.15678 10.2819 4.05666 10.4059 3.96886C10.5394 3.88146 10.6993 3.84362 10.8578 3.86193C11.0163 3.88023 11.1634 3.95353 11.2734 4.06906C11.3789 4.17986 11.4448 4.32248 11.4607 4.47464C11.4766 4.62681 11.4416 4.77995 11.3613 4.91017C11.2898 5.01695 11.2074 5.11592 11.1152 5.20548C10.2949 6.0258 9.4746 6.84611 8.65428 7.66642C8.15858 8.16037 7.82723 8.16213 7.33592 7.67609C6.98436 7.32892 6.6328 6.98439 6.29266 6.63107C5.95252 6.27775 5.92528 5.86291 6.21268 5.57023C6.50008 5.27756 6.91053 5.29074 7.27352 5.63C7.39305 5.74162 7.51258 5.85588 7.62069 5.98156C7.72879 6.10724 7.8202 6.23556 7.93885 6.39113Z" fill="#3138E3"/>
</g>
<defs>
<clipPath id="clip0_853_34759">
<rect width="29.8178" height="36" fill="white" transform="translate(3)"/>
</clipPath>
</defs>
</svg>
