<svg width="40" height="40" viewBox="0 0 40 40" fill="none" xmlns="http://www.w3.org/2000/svg">
<g clip-path="url(#clip0_853_34763)">
<path d="M6.10062 40.0004L5.80962 39.8957C4.80894 39.5472 4.18195 38.871 4.05006 37.8022C4.00363 37.3215 3.99278 36.838 4.01761 36.3557C4.02703 35.9548 4.2772 35.7276 4.631 35.7444C4.9848 35.7611 5.16902 35.9778 5.18158 36.3724C5.1931 36.7252 5.18158 37.0779 5.18787 37.4296C5.21299 38.2827 5.7531 38.8082 6.60828 38.8134C7.41637 38.8134 8.2255 38.8134 9.09324 38.8134V37.5573C9.09324 37.1658 9.08696 36.7743 9.09324 36.3829C9.10266 35.9642 9.33922 35.6931 9.6836 35.692C10.028 35.691 10.2624 35.9568 10.2645 36.3808C10.2708 37.1752 10.2645 37.9687 10.2645 38.7883H29.5203V36.8372C29.5203 36.6938 29.5203 36.5493 29.5203 36.4059C29.5297 35.9746 29.7443 35.7119 30.0887 35.7035C30.4331 35.6952 30.6885 35.9715 30.6937 36.4206C30.701 37.0601 30.6937 37.7007 30.6937 38.3403V38.8249H32.1863C32.5265 38.8249 32.8657 38.8249 33.2048 38.8249C34.0024 38.8155 34.5844 38.3193 34.5907 37.5332C34.6085 35.4973 34.6493 33.4572 34.553 31.4245C34.4588 29.4357 33.0698 27.8111 31.1532 27.225C30.5178 27.0303 29.8814 26.8356 29.2366 26.6723C29.0557 26.6303 28.8658 26.6541 28.7007 26.7393C25.9701 28.3492 23.2455 29.9688 20.5267 31.5982C20.0766 31.8704 19.7239 31.8714 19.2707 31.5982C16.5785 29.9737 13.8685 28.3785 11.1689 26.7655C11.0694 26.6953 10.9545 26.6502 10.8339 26.6338C10.7133 26.6174 10.5906 26.6302 10.476 26.6712C9.89609 26.8659 9.30154 27.0177 8.71641 27.1999C6.53083 27.8802 5.21717 29.6387 5.18577 31.9238C5.17844 32.4723 5.1931 33.0208 5.1774 33.5682C5.16693 33.923 4.93979 34.147 4.62367 34.1586C4.54793 34.1649 4.47169 34.1555 4.39973 34.1311C4.32777 34.1066 4.26162 34.0676 4.20543 34.0164C4.14924 33.9652 4.1042 33.903 4.07315 33.8336C4.04209 33.7642 4.02568 33.6892 4.02494 33.6132C4.0061 32.3634 3.89933 31.101 4.33896 29.89C5.05283 27.9252 6.43243 26.6566 8.42123 26.0547C8.89541 25.9124 9.38423 25.8098 9.84584 25.636C10.3589 25.4569 10.8533 25.228 11.3217 24.9525C12.7254 24.0722 14.1029 23.15 15.4898 22.2435C15.5825 22.1831 15.6596 22.1019 15.7152 22.0063C15.7708 21.9107 15.8033 21.8034 15.81 21.6931C15.8167 21.5827 15.7975 21.4723 15.7539 21.3707C15.7103 21.269 15.6435 21.179 15.5589 21.1078C14.2086 19.9648 13.3817 18.5308 13.1232 16.7723C13.1071 16.7031 13.0761 16.6384 13.0323 16.5825C12.9886 16.5266 12.9331 16.481 12.8699 16.4488C12.1371 16.162 11.7813 15.6313 11.7802 14.8536C11.7802 13.4164 11.7865 11.9803 11.7677 10.5442C11.7677 10.3453 11.6368 10.1485 11.5709 9.94963C11.4746 9.65863 11.3196 9.37078 11.3019 9.07455C11.261 8.39732 11.2966 7.7138 11.2799 7.03865C11.2799 6.93398 11.1752 6.7508 11.0873 6.7351C10.2049 6.56657 9.31724 6.42108 8.39821 6.27035V8.96674C8.7541 9.20226 9.15604 9.34775 9.35492 9.63456C9.5538 9.92136 9.61975 10.3422 9.60614 10.7001C9.54857 12.2996 9.99448 13.8278 10.2122 15.3874C10.2604 15.736 10.3368 16.0804 10.3912 16.4279C10.5367 17.3699 9.9725 18.0482 9.01892 18.0566C8.19618 18.0629 7.37345 18.0629 6.55072 18.0566C5.58353 18.0472 5.0162 17.349 5.18263 16.3933C5.43175 14.9666 5.69553 13.542 5.91535 12.1111C5.99176 11.5993 5.9457 11.0644 5.94884 10.5473C5.95512 9.67643 6.3152 9.24203 7.19865 9.09026C7.19865 8.08225 7.19865 7.06587 7.19237 6.05472C7.17416 5.95555 7.12678 5.86407 7.05629 5.79199C6.41987 4.99333 6.7004 4.02405 7.68433 3.71107C11.2851 2.55966 14.8984 1.44594 18.4856 0.251609C19.4013 -0.0760572 20.4023 -0.0760572 21.3181 0.251609C24.8676 1.43338 28.4443 2.53245 32.0074 3.67444C32.2686 3.75304 32.5099 3.88691 32.7149 4.06696C33.0656 4.39459 33.1504 4.82794 33.0101 5.29165C32.952 5.51497 32.829 5.71608 32.6567 5.86958C32.4844 6.02308 32.2704 6.12211 32.0419 6.15416C30.9889 6.34362 29.9338 6.51842 28.8797 6.70055C28.7656 6.72044 28.6515 6.74661 28.4997 6.77801C28.4997 7.49189 28.4935 8.1953 28.4997 8.89766C28.4997 9.34147 28.4474 9.7497 28.1062 10.0847C28.0235 10.1663 28.0088 10.3453 28.0088 10.4803C28.0025 11.8903 27.9942 13.3013 28.0088 14.7112C28.0193 15.5654 27.6948 16.1693 26.8679 16.4729C26.8145 16.5003 26.768 16.5394 26.7318 16.5873C26.6956 16.6351 26.6705 16.6904 26.6585 16.7492C26.401 18.5517 25.55 20.014 24.1526 21.1706C23.8711 21.403 23.9192 22.008 24.229 22.2101C25.8128 23.2474 27.385 24.3035 28.9907 25.3011C29.3759 25.5418 29.8678 25.6151 30.3158 25.7501C31.3908 26.0715 32.4815 26.3457 33.3901 27.0596C34.9885 28.3157 35.7641 29.9643 35.7746 31.9792C35.7829 33.7678 35.7829 35.5566 35.7746 37.3459C35.7746 38.6993 35.0942 39.5723 33.7858 39.946C33.7504 39.9611 33.717 39.9804 33.6863 40.0035L6.10062 40.0004ZM15.5212 10.3945C15.5212 10.7922 15.5307 11.1921 15.5212 11.592C15.5152 12.0807 15.3174 12.5474 14.9704 12.8916C14.6235 13.2359 14.1552 13.43 13.6664 13.4321C13.4477 13.4384 13.2289 13.4321 12.9745 13.4321C12.9745 13.9754 12.9484 14.4789 12.9934 14.9834C13.0049 15.1121 13.2247 15.2848 13.3786 15.3246C13.9784 15.4806 14.2055 15.7067 14.261 16.3023C14.3669 17.7222 15.0048 19.0499 16.0472 20.0198C17.0896 20.9898 18.4597 21.5306 19.8835 21.5342C21.3074 21.5378 22.6802 21.0038 23.7274 20.0391C24.7747 19.0744 25.4192 17.7499 25.5322 16.3305C25.594 15.6962 25.8023 15.4869 26.4272 15.3225C26.579 15.2827 26.7925 15.1027 26.804 14.9719C26.848 14.4726 26.8218 13.967 26.8218 13.4332H26.2744C25.0466 13.4237 24.2793 12.6554 24.2699 11.4234C24.2699 11.0874 24.2699 10.7504 24.2699 10.3934L15.5212 10.3945ZM12.492 9.16981H27.2991V6.79162C26.9349 6.74033 26.5853 6.70788 26.2419 6.63775C25.8986 6.56762 25.7238 6.32373 25.7646 5.98877C25.8054 5.65382 26.0441 5.48215 26.4042 5.49785C26.6135 5.50832 26.8229 5.5481 27.027 5.56485C27.3755 5.59311 27.7335 5.67475 28.0737 5.62765C29.1205 5.4832 30.1588 5.28955 31.2003 5.11161C31.4275 5.07183 31.6525 5.01321 31.8776 4.96402C31.8034 4.86953 31.7017 4.8004 31.5866 4.76619C27.773 3.55337 23.9586 2.34334 20.1436 1.1361C19.9591 1.08864 19.7648 1.09482 19.5836 1.1539C15.9661 2.29484 12.351 3.44136 8.73839 4.59347C8.45996 4.68244 8.18467 4.78188 7.81308 4.90749C7.92336 4.95737 8.03704 4.99935 8.15327 5.0331C8.976 5.17267 9.79909 5.31049 10.6225 5.44656C11.0977 5.52298 11.5824 5.67894 12.0492 5.63812C13.3744 5.52297 14.6922 5.32409 16.0122 5.15662C18.0847 4.88656 20.1541 4.59033 22.2465 4.96716C22.6956 5.04776 23.1541 5.07183 23.6073 5.13778C23.9914 5.19116 24.2353 5.47064 24.1903 5.79408C24.1453 6.11752 23.8763 6.32373 23.4796 6.30279C23.3487 6.29651 23.22 6.2693 23.0902 6.25883C21.8435 6.16148 20.5958 5.99401 19.3492 5.99401C18.337 5.99401 17.3248 6.18661 16.3136 6.30803C15.045 6.4598 13.7795 6.62205 12.493 6.78534L12.492 9.16981ZM22.8024 22.0154C21.893 22.4417 20.901 22.6628 19.8966 22.6628C18.8923 22.6628 17.9002 22.4417 16.9909 22.0154C16.9362 23.0846 17.0531 24.1558 17.3373 25.188C17.3572 25.2623 17.5069 25.3325 17.6063 25.3492C19.1244 25.6235 20.6793 25.6235 22.1973 25.3492C22.2552 25.337 22.3096 25.3118 22.3564 25.2756C22.4032 25.2393 22.4411 25.1929 22.4674 25.1399C22.7409 24.1221 22.8539 23.0679 22.8024 22.0154ZM23.9538 23.4274C23.7444 25.6172 23.0368 27.5693 21.9179 29.3938L27.7628 25.9197L23.9538 23.4274ZM15.8269 23.4274L12.0272 25.9113L17.8722 29.3833C16.7385 27.5849 16.0389 25.5472 15.829 23.4316L15.8269 23.4274ZM9.20105 16.878C9.22053 16.812 9.23144 16.7437 9.2335 16.6749C9.01578 15.3654 8.79701 14.0581 8.56464 12.7486C8.5445 12.7013 8.51308 12.6597 8.47311 12.6274C8.43314 12.5951 8.38585 12.5731 8.3354 12.5633C7.90833 12.5445 7.48022 12.555 7.04059 12.555C6.80402 13.9262 6.57584 15.2597 6.34346 16.5933C6.30054 16.8382 6.4272 16.8832 6.63131 16.8801C7.10025 16.8738 7.57338 16.8801 8.03918 16.8801L9.20105 16.878ZM21.9514 26.666H17.8366C18.315 27.9221 19.1419 29.0002 19.8977 30.1904C20.6534 28.9919 21.4824 27.9179 21.9534 26.6702L21.9514 26.666ZM12.9976 10.3882V12.2545C13.2509 12.2545 13.4728 12.2713 13.6905 12.2545C14.038 12.221 14.2987 12.0347 14.3301 11.6788C14.3667 11.2601 14.3384 10.831 14.3384 10.3913L12.9976 10.3882ZM26.8145 12.2524V10.3945H25.4537C25.4537 10.8268 25.4307 11.2413 25.46 11.6506C25.4862 12.0086 25.7332 12.2064 26.0786 12.2462C26.3215 12.262 26.5651 12.2641 26.8082 12.2524H26.8145ZM8.43065 10.3223H7.15364V11.3596H8.43065V10.3223Z" fill="#3138E3"/>
</g>
<defs>
<clipPath id="clip0_853_34763">
<rect width="31.7842" height="40" fill="white" transform="translate(4)"/>
</clipPath>
</defs>
</svg>
